# xmcd CD database file
#
# Track frame offsets:
#	150
#	10432
#	22128
#	36441
#	49663
#	68679
#	80109
#	92629
#	103310
#	115964
#	129676
#	147445
#	168744
#	181626
#	194085
#
# Disc length: 2947 seconds
#
# Revision: 2
# Processed by: cddbd v1.5.2PL0 Copyright (c) Steve Scherf et al.
# Submitted via: CDex 1.70beta2
#
DISCID=e10b810f
DTITLE=Van Morrison - Pay The Devil
DYEAR=2006
DGENRE=Blues
TTITLE0=There Stands The Glass
TTITLE1=Half As Much
TTITLE2=Things Have Gone To Pieces
TTITLE3=Big Blue Diamonds
TTITLE4=Playhouse
TTITLE5=Your Cheatin' Heart
TTITLE6=Don't You Make Me High
TTITLE7=My Bucket's Got A Hole In It
TTITLE8=Back Street Affair
TTITLE9=Pay The Devil
TTITLE10=What Am I Living For?
TTITLE11=This Has Got To Stop
TTITLE12=Once A Day
TTITLE13=More And More
TTITLE14=Till I Gain Control Again
EXTD=YEAR: 2006
EXTT0=
EXTT1=
EXTT2=
EXTT3=
EXTT4=
EXTT5=
EXTT6=
EXTT7=
EXTT8=
EXTT9=
EXTT10=
EXTT11=
EXTT12=
EXTT13=
EXTT14=
PLAYORDER=
